<?xml version="1.0" standalone="no"?>
<!DOCTYPE svg PUBLIC "-//W3C//DTD SVG 20010904//EN"
 "http://www.w3.org/TR/2001/REC-SVG-20010904/DTD/svg10.dtd">
<svg version="1.0" xmlns="http://www.w3.org/2000/svg"
 width="75.000000pt" height="75.000000pt" viewBox="0 0 1836.000000 2000.000000"
 preserveAspectRatio="xMidYMid meet">

<g transform="translate(0.000000,2000.000000) scale(0.100000,-0.100000)"
fill="#34495e" stroke="none">
<path d="M8690 17304 c-479 -32 -682 -56 -1030 -125 -702 -138 -1414 -415
-1995 -775 -65 -40 -81 -55 -83 -77 -3 -23 -26 -42 -146 -121 -607 -400 -1181
-937 -1588 -1486 -416 -561 -754 -1242 -939 -1894 -41 -147 -44 -161 -28 -133
14 24 32 21 27 -5 -3 -13 -21 -93 -41 -178 -189 -809 -227 -1638 -107 -2345
65 -381 186 -791 333 -1125 53 -121 74 -157 63 -105 -4 17 -9 51 -13 78 -4 38
-3 47 10 47 10 0 29 -37 57 -107 23 -60 80 -187 125 -283 46 -96 98 -209 115
-250 81 -188 154 -311 226 -383 36 -36 74 -63 74 -54 0 2 -36 78 -79 168 -339
702 -575 1545 -606 2169 -7 141 6 122 35 -53 22 -128 44 -209 66 -241 12 -18
14 -18 20 -2 4 10 3 158 -2 329 -15 508 -11 983 9 1107 18 109 58 283 64 277
2 -2 -3 -60 -11 -129 -54 -456 -36 -968 50 -1438 31 -170 75 -347 105 -425
l23 -60 6 35 c5 28 8 31 14 17 5 -9 6 -27 3 -40 -20 -75 -20 -77 -3 -77 9 0
16 5 16 10 0 6 6 10 13 10 6 0 77 -152 156 -338 164 -383 256 -581 332 -715
153 -267 316 -486 561 -749 54 -58 98 -110 98 -116 0 -7 29 -48 65 -92 93
-116 98 -125 92 -166 -7 -41 8 -76 99 -226 147 -244 333 -478 539 -683 518
-513 604 -591 848 -768 497 -362 1219 -688 1902 -861 229 -57 343 -77 693
-121 156 -19 334 -45 395 -57 94 -19 144 -22 317 -22 268 0 466 23 925 104
295 53 392 73 573 121 1093 286 2135 914 2935 1768 420 448 738 907 1017 1473
603 1220 792 2622 539 4006 -85 470 -228 937 -419 1369 -56 126 -66 142 -89
145 -23 3 -39 28 -137 219 -320 624 -667 1103 -1144 1580 -378 379 -704 634
-1155 904 -234 140 -595 319 -813 401 -58 22 -61 23 -50 4 7 -10 10 -22 7 -25
-3 -3 -72 20 -153 50 -478 180 -1015 308 -1586 380 -351 45 -431 53 -575 65
-144 11 -657 21 -755 14z m851 -1486 c16 -30 2 -36 -48 -20 -57 18 -57 18 -48
31 11 18 85 10 96 -11z m-283 -5 c-24 -4 -26 -6 -17 -32 l10 -28 37 18 c48 25
57 24 202 -12 147 -36 177 -33 195 21 16 49 47 50 113 6 71 -47 225 -105 208
-77 -5 7 4 16 21 24 20 8 27 18 25 31 -4 16 0 18 28 12 18 -3 45 -6 61 -6 19
0 30 -6 34 -19 10 -31 46 -37 66 -12 13 16 28 21 64 21 41 0 47 -3 56 -27 5
-16 28 -41 50 -57 22 -15 39 -30 37 -31 -2 -2 -30 3 -63 11 -100 24 -205 17
-205 -14 0 -4 39 -16 88 -26 268 -58 702 -190 957 -291 134 -53 377 -164 385
-175 3 -4 88 -49 189 -100 122 -61 196 -105 222 -131 22 -22 45 -39 52 -39 15
0 181 -108 185 -121 9 -25 94 -130 117 -145 15 -10 42 -18 60 -18 30 -1 40 -9
76 -61 54 -78 106 -139 264 -313 141 -156 225 -262 277 -353 18 -32 38 -59 44
-59 6 0 21 -19 34 -42 12 -24 33 -57 46 -75 14 -18 19 -33 13 -35 -6 -2 -1
-15 11 -31 l21 -27 -22 0 c-19 0 -16 -6 25 -50 47 -50 78 -107 90 -165 5 -24
4 -26 -4 -12 -16 25 -37 21 -44 -8 -10 -38 0 -45 58 -45 64 0 91 -20 51 -38
-26 -12 -32 -48 -16 -102 8 -25 8 -24 26 13 14 28 24 37 40 35 25 -4 33 -49
11 -68 -9 -7 -16 -19 -16 -28 0 -13 3 -12 20 3 20 18 22 18 57 1 26 -12 33
-20 24 -25 -9 -6 -11 -19 -6 -40 4 -19 3 -31 -4 -31 -5 0 2 -22 16 -50 20 -39
24 -57 18 -86 -8 -44 -17 -37 -42 31 -15 39 -24 51 -43 53 l-25 4 22 -24 c36
-39 70 -118 98 -228 15 -58 35 -123 44 -146 19 -43 67 -94 88 -94 21 0 15 -18
-8 -25 -18 -6 -20 -13 -15 -43 4 -26 -2 -17 -18 28 -91 254 -270 452 -531 588
-410 213 -1086 260 -1635 116 -543 -144 -929 -480 -1059 -922 -69 -234 -69
-548 -1 -761 60 -188 209 -391 405 -550 186 -152 348 -232 1070 -531 391 -161
555 -255 666 -379 150 -168 179 -391 79 -606 -32 -68 -167 -201 -252 -248 -87
-48 -248 -102 -373 -124 -157 -28 -567 -25 -733 5 -343 61 -518 176 -572 375
-14 52 -9 218 10 332 29 177 4 286 -85 362 -113 96 -323 109 -450 28 -127 -80
-192 -222 -215 -464 -32 -342 66 -650 270 -850 94 -92 159 -138 298 -208 331
-168 774 -242 1270 -213 303 17 510 55 727 131 385 134 662 352 805 635 92
180 127 328 137 569 4 116 2 169 -11 234 -30 155 -76 276 -143 372 -56 79
-177 212 -243 266 -165 135 -447 279 -940 480 -362 147 -579 253 -701 344
-139 103 -242 239 -275 363 -17 61 -18 225 -3 298 20 98 76 196 156 275 166
164 396 239 758 250 266 8 437 -21 609 -102 109 -52 185 -118 225 -197 51
-100 54 -181 20 -466 -17 -135 -5 -213 44 -286 108 -162 358 -195 522 -70 144
109 225 457 185 783 -6 46 -9 86 -6 89 3 3 19 -24 35 -60 16 -35 41 -73 56
-84 l27 -20 -26 -74 c-14 -40 -26 -81 -26 -91 0 -33 68 -167 93 -183 23 -16
24 -18 11 -54 -7 -20 -13 -54 -14 -75 0 -21 -5 -47 -11 -58 -10 -19 -8 -20 23
-14 26 5 40 1 61 -15 25 -20 26 -23 12 -44 -26 -40 -35 -115 -20 -174 29 -111
38 -288 26 -509 -19 -331 -24 -564 -14 -620 10 -51 10 -51 -17 -56 -21 -5 -31
-16 -44 -51 -10 -25 -23 -46 -29 -46 -6 0 -1 -10 10 -22 17 -18 22 -39 24
-100 3 -71 2 -79 -19 -94 -41 -28 -63 -90 -77 -215 -8 -65 -21 -133 -28 -151
-16 -38 -68 -86 -108 -100 -26 -9 -27 -13 -30 -93 -4 -83 -5 -87 -84 -242 -44
-87 -81 -160 -83 -163 -2 -3 -8 4 -14 14 -9 16 -15 7 -40 -55 -16 -41 -27 -84
-25 -97 3 -17 1 -22 -9 -18 -8 3 -20 8 -27 11 -8 4 -17 -9 -24 -38 -9 -31 -34
-69 -90 -131 -121 -136 -151 -177 -173 -236 -39 -103 -61 -136 -152 -236 -115
-126 -165 -191 -174 -229 l-7 -30 -11 27 c-11 25 -12 26 -44 13 -17 -8 -32
-20 -32 -28 0 -8 -25 -52 -55 -97 -30 -45 -55 -91 -55 -101 0 -25 -18 -33 -61
-30 -20 1 -40 -2 -43 -7 -3 -5 0 -32 6 -59 l12 -50 40 9 c84 19 137 69 239
225 59 91 142 182 154 169 3 -3 -7 -19 -21 -37 -27 -32 -31 -59 -9 -66 12 -4
117 86 110 94 -3 2 -16 -1 -31 -6 -14 -6 -26 -9 -26 -8 1 7 62 122 71 134 21
24 31 13 27 -29 -4 -61 21 -63 55 -5 15 24 42 58 61 75 46 40 131 98 121 83
-4 -8 1 -25 14 -42 32 -43 26 -56 -34 -84 -60 -29 -82 -54 -138 -156 -43 -78
-93 -125 -142 -135 -44 -8 -66 -37 -58 -75 5 -26 3 -29 -21 -29 -49 0 -158
-121 -158 -175 0 -33 -40 -57 -107 -64 -56 -6 -80 -28 -42 -38 36 -9 23 -20
-24 -21 -58 0 -99 -26 -197 -121 l-78 -74 -21 19 c-18 15 -23 16 -27 5 -13
-37 -80 -93 -172 -141 -55 -30 -100 -58 -100 -62 0 -15 86 -7 129 12 24 11 85
49 136 84 109 76 146 96 176 96 15 0 52 28 103 78 45 43 113 100 151 127 272
188 349 250 396 317 l20 27 -28 -2 c-19 -1 -28 3 -28 13 0 16 58 21 106 7 24
-6 31 0 77 61 27 37 109 137 182 222 253 297 385 469 474 618 42 70 54 80 30
25 -9 -21 -27 -64 -40 -95 -16 -38 -45 -79 -86 -121 -35 -36 -92 -112 -128
-171 -36 -59 -90 -148 -120 -198 -69 -115 -169 -218 -233 -243 -44 -17 -47
-20 -47 -54 0 -47 -21 -86 -100 -191 -36 -47 -74 -105 -85 -128 -19 -43 -20
-44 -58 -38 -48 8 -67 -6 -67 -49 0 -60 -35 -94 -170 -165 -128 -67 -170 -106
-170 -154 0 -16 -16 -30 -62 -54 -35 -18 -106 -64 -158 -103 -117 -85 -206
-131 -479 -249 -118 -50 -233 -101 -254 -112 -22 -11 -55 -22 -74 -24 -51 -6
-103 -31 -103 -48 0 -8 -27 -34 -61 -57 -52 -35 -66 -40 -95 -34 -19 3 -49 2
-67 -4 -18 -5 -66 -15 -107 -22 -93 -14 -246 -62 -323 -101 -53 -26 -69 -29
-175 -32 -111 -3 -299 -35 -333 -57 -20 -13 9 -30 41 -24 14 2 43 7 65 10 l40
7 -42 -25 c-33 -20 -51 -24 -82 -20 -23 3 -41 10 -41 15 0 5 -11 20 -25 33
-17 18 -35 25 -63 25 -38 0 -40 -2 -44 -35 -3 -27 -1 -34 10 -30 7 3 31 8 53
11 37 6 39 5 36 -17 -6 -36 -72 -58 -180 -58 -62 -1 -97 4 -119 15 -28 14 -34
14 -67 1 -20 -9 -72 -18 -116 -21 -44 -4 -99 -9 -122 -12 -39 -6 -43 -5 -43
15 0 25 -26 39 -43 22 -7 -7 -48 -9 -126 -6 -131 6 -129 1 23 -45 88 -27 88
-27 65 -43 -30 -22 -35 -21 -89 5 -76 37 -83 38 -170 30 -158 -15 -287 0 -805
93 -77 14 -186 28 -242 32 -100 6 -102 7 -97 29 4 17 -1 26 -23 40 -15 9 -40
25 -55 35 -23 16 -27 17 -39 3 -11 -13 -27 -15 -93 -9 -78 7 -82 9 -115 46
-44 52 -70 65 -197 94 -161 39 -211 72 -235 160 -9 33 -13 35 -52 35 -71 1
-141 33 -286 131 -101 68 -136 96 -125 102 19 11 18 27 -3 27 -10 0 -38 14
-63 30 -25 16 -56 30 -69 30 -14 0 -21 5 -18 13 3 6 8 20 12 29 5 13 -2 21
-30 32 -20 9 -63 44 -94 78 -141 157 -210 219 -274 249 -66 31 -95 58 -256
238 -46 51 -91 91 -115 102 -37 17 -39 19 -18 25 34 10 31 59 -6 78 -16 8 -50
35 -78 59 -27 24 -68 54 -91 66 -47 24 -47 23 -34 68 13 43 -3 55 -63 47 l-47
-7 6 -41 c15 -92 43 -127 241 -302 38 -34 78 -77 88 -95 l19 -34 -31 29 c-19
17 -37 26 -46 23 -18 -7 -20 -16 -7 -50 21 -54 101 -123 101 -87 0 6 -5 9 -11
8 -19 -5 -35 30 -21 44 9 9 15 10 20 2 4 -7 30 -25 57 -41 64 -37 70 -69 13
-66 -50 3 -48 -14 5 -52 54 -39 141 -195 109 -195 -11 0 -25 -7 -32 -15 -24
-29 -54 -14 -70 35 -24 71 -36 86 -117 147 -86 65 -120 107 -128 162 -9 54
-18 66 -61 71 -34 4 -39 8 -36 28 4 29 -27 80 -82 130 -43 39 -82 59 -94 48
-15 -16 -42 52 -42 107 0 42 -4 57 -14 57 -8 0 -17 -7 -20 -16 -3 -8 -10 -12
-16 -9 -6 4 -7 11 -4 17 13 20 5 88 -16 127 -11 23 -44 70 -73 104 -72 84 -72
84 -41 100 l26 14 -31 23 c-23 16 -49 57 -92 146 -33 69 -64 122 -69 119 -16
-10 -11 -88 9 -146 10 -30 42 -101 71 -159 29 -58 54 -117 55 -132 1 -15 30
-66 63 -114 34 -47 90 -143 125 -212 56 -111 63 -133 59 -170 -2 -23 -8 -44
-13 -47 -12 -8 -301 257 -352 322 -62 81 -67 94 -55 118 6 11 12 22 15 24 2 3
29 -21 61 -52 32 -32 72 -61 88 -66 l31 -9 -11 32 c-6 17 -21 44 -33 60 -19
24 -27 27 -50 20 -46 -13 -47 -12 -48 57 -2 74 -8 89 -36 89 -10 0 -24 9 -31
20 -14 22 -47 27 -65 9 -7 -7 -14 0 -23 23 -7 18 -23 47 -35 63 -24 33 -63
148 -154 451 -67 224 -113 349 -162 445 -32 63 -33 66 -34 209 -2 151 -19 278
-56 395 -18 58 -19 74 -9 143 11 79 7 184 -11 304 -18 117 -49 101 -49 -25 0
-43 -5 -88 -12 -100 -11 -22 -12 -21 -20 8 -19 62 -20 296 -3 460 9 88 19 228
22 312 5 145 7 152 27 155 17 2 20 9 18 35 -2 17 2 51 9 75 11 40 28 158 23
158 -17 0 -120 -237 -130 -299 -5 -31 -13 -45 -33 -55 l-26 -14 0 -194 c-1
-211 -14 -295 -44 -282 -40 16 -44 11 -65 -101 -26 -133 -37 -126 -60 41 -19
127 -23 309 -16 704 4 260 6 286 22 298 10 7 27 31 38 53 11 21 23 39 25 39 3
0 2 -46 -1 -103 -6 -85 -4 -108 10 -135 9 -18 20 -32 24 -32 5 0 16 69 26 153
126 1074 472 1966 1037 2667 42 52 95 115 118 140 l42 45 -5 -94 -5 -94 30 29
c35 34 120 137 319 387 154 194 282 328 378 395 84 58 82 33 -3 -58 -36 -38
-65 -72 -65 -74 0 -3 24 12 52 34 35 26 71 43 108 51 123 25 154 35 158 47 2
7 -5 12 -16 12 -47 0 -70 29 -38 47 8 5 52 42 98 83 45 41 79 69 74 63 -22
-37 67 3 161 72 80 58 123 76 62 25 -33 -26 -77 -96 -67 -105 7 -7 79 13 104
30 21 13 25 23 22 53 l-3 37 78 -4 c64 -2 77 0 77 12 0 9 11 29 25 45 27 33
32 52 13 52 -8 0 -5 7 6 15 11 8 31 14 45 14 14 -1 80 22 146 51 142 62 411
165 545 208 63 20 134 34 210 41 142 13 223 34 275 69 l40 27 -30 4 c-30 4
-30 4 -5 11 36 9 72 -8 64 -32 -3 -10 -2 -18 3 -17 4 1 16 -1 26 -6 13 -5 22
-2 32 13 15 20 75 30 280 47 114 9 134 15 137 38 4 29 39 35 131 24 75 -10 78
-11 72 -34 -5 -21 -2 -23 35 -23 54 0 106 26 90 45 -15 18 27 32 95 32 28 0
38 -2 23 -4z m701 -49 c22 -9 38 -20 35 -25 -10 -17 -49 -9 -109 21 l-60 30
46 -5 c26 -2 65 -12 88 -21z m-3079 -487 c0 -17 -34 -66 -42 -61 -5 3 -21 9
-36 13 -25 7 -25 8 19 29 42 21 59 26 59 19z m-1225 -7856 c33 -36 66 -57 51
-32 -9 14 4 41 20 41 17 0 18 -26 2 -85 l-12 -45 119 -122 c66 -66 113 -117
105 -113 -8 5 -73 47 -145 94 -133 87 -343 278 -318 288 15 6 46 -11 106 -59
27 -21 56 -38 65 -38 12 0 7 8 -16 26 -39 31 -76 93 -92 154 -6 25 -14 54 -17
65 -3 11 17 -14 45 -57 28 -42 67 -95 87 -117z m475 -717 l65 -23 8 30 c4 16
13 29 19 29 6 0 47 -35 92 -78 128 -123 306 -262 423 -332 134 -81 516 -272
813 -409 124 -57 226 -105 228 -106 1 -1 -2 -14 -8 -29 -9 -23 -7 -28 14 -36
14 -5 41 -6 62 -3 29 5 40 2 50 -12 23 -31 17 -35 -45 -35 -65 0 -130 19 -261
74 -57 24 -101 36 -133 36 -42 0 -58 7 -127 55 -43 31 -155 92 -247 136 -255
121 -273 130 -326 181 -28 26 -64 52 -81 58 -18 5 -85 51 -151 101 -66 50
-141 102 -167 115 -34 17 -46 28 -41 39 3 9 -2 24 -12 35 -17 19 -18 19 -53
-1 -20 -10 -40 -19 -43 -19 -4 0 -9 17 -13 38 -6 43 -64 115 -131 165 -22 16
-31 26 -20 22 11 -5 49 -19 85 -31z"/>
<path d="M7685 13314 c-22 -2 -110 -9 -195 -15 -541 -38 -1169 -192 -1631
-399 -161 -72 -382 -193 -464 -256 -131 -99 -175 -179 -183 -334 -5 -113 7
-167 50 -216 47 -53 83 -68 163 -67 83 1 156 26 291 101 329 183 649 311 1000
402 728 189 1535 197 1989 21 236 -91 389 -245 440 -441 23 -89 17 -261 -13
-344 -93 -259 -350 -459 -730 -570 -198 -58 -335 -81 -580 -96 -188 -12 -248
-29 -304 -87 -49 -50 -74 -111 -88 -210 -13 -96 0 -190 31 -234 33 -46 77 -59
257 -75 365 -31 527 -89 683 -245 101 -101 142 -208 142 -364 -1 -165 -55
-294 -177 -424 -228 -241 -616 -359 -1236 -378 -182 -5 -536 9 -549 23 -7 6
26 329 55 538 102 751 265 1535 425 2046 40 127 57 227 45 274 -11 44 -64 94
-124 118 -51 20 -75 22 -217 23 -140 0 -169 -3 -234 -23 -172 -54 -198 -92
-284 -412 -168 -618 -324 -1412 -417 -2115 -65 -492 -115 -1060 -100 -1149 28
-172 122 -236 344 -236 274 1 430 93 462 273 l6 38 62 -5 c249 -22 701 -13
980 19 592 69 1055 240 1371 506 216 182 363 432 410 699 17 99 20 306 4 382
-14 70 -52 171 -88 233 -35 60 -139 177 -204 229 -65 52 -242 143 -330 171
l-72 22 45 12 c250 64 534 184 701 293 323 214 520 510 569 858 19 129 8 323
-24 445 -85 327 -334 595 -703 759 -208 93 -481 161 -768 192 -140 15 -706 28
-810 18z"/>
<path d="M12915 8010 c3 -5 8 -10 11 -10 2 0 4 5 4 10 0 6 -5 10 -11 10 -5 0
-7 -4 -4 -10z"/>
</g>
</svg>
